<svg width="89" height="31" viewBox="0 0 89 31" fill="none" xmlns="http://www.w3.org/2000/svg">
<path d="M17.4609 0.0202026H23.0143V30.2571H17.4609V27.7045C15.7939 29.8011 13.4574 30.8588 10.4466 30.8588C7.57623 30.8588 5.11793 29.7588 3.0717 27.554C1.01609 25.3493 0 22.6556 0 19.4542C0 16.2528 1.02546 13.5591 3.0717 11.3543C5.1273 9.14957 7.58091 8.04953 10.4466 8.04953C13.4574 8.04953 15.7939 9.09785 17.4609 11.2039V0.0202026ZM7.22504 23.8355C8.33947 24.9732 9.76762 25.542 11.4861 25.542C13.2045 25.542 14.628 24.9732 15.7612 23.8355C16.8943 22.6979 17.4609 21.2406 17.4609 19.4542C17.4609 17.6678 16.8943 16.2105 15.7612 15.0728C14.628 13.9352 13.1999 13.3664 11.4861 13.3664C9.7723 13.3664 8.34415 13.9352 7.22504 15.0728C6.10593 16.2105 5.54404 17.6678 5.54404 19.4542C5.54872 21.2406 6.11061 22.6979 7.22504 23.8355Z" fill="#181818"/>
<path d="M36.6934 8.04376C39.2173 8.04376 41.3057 8.78182 42.9726 10.2673C44.6396 11.7529 45.4684 13.8307 45.4684 16.5103V30.2466H40.0508V28.3897C38.7069 30.0351 36.7496 30.8531 34.1977 30.8531C32.1608 30.8531 30.4517 30.256 29.061 29.0573C27.6703 27.8679 26.9727 26.185 26.9727 24.0272C26.9727 21.8694 27.6657 20.1959 29.061 19.0206C30.4517 17.836 32.1608 17.253 34.1977 17.253C36.6326 17.253 38.5805 17.883 40.0508 19.157V16.8629C40.0508 14.4465 38.9363 13.2337 36.6934 13.2337C35.6914 13.2337 34.886 13.4828 34.2867 13.9905C33.6826 14.4983 33.3829 15.1658 33.3829 15.9979H27.9653C27.9653 13.5533 28.8082 11.6165 30.4798 10.1921C32.1515 8.75831 34.2258 8.04376 36.6934 8.04376ZM36.0941 26.7068C37.2975 26.7068 38.2621 26.4576 38.9785 25.9499C39.6949 25.4422 40.0508 24.8029 40.0508 24.0319C40.0508 23.1951 39.6949 22.537 38.9972 22.0669C38.2995 21.5968 37.3256 21.357 36.0941 21.357C34.9141 21.357 34.0291 21.6062 33.4298 22.0951C32.8257 22.584 32.5261 23.2327 32.5261 24.0413C32.5261 24.8499 32.8257 25.4986 33.4298 25.9875C34.0198 26.4576 34.9141 26.7068 36.0941 26.7068Z" fill="#181818"/>
<path d="M54.8817 14.9167C54.8817 15.5842 55.2703 16.1013 56.0663 16.4727C56.853 16.8441 57.8176 17.1403 58.9694 17.3612C60.112 17.5728 61.2545 17.8783 62.3876 18.2497C63.5208 18.6211 64.476 19.2886 65.272 20.2335C66.0587 21.1831 66.4567 22.4383 66.4567 23.9944C66.4567 26.1803 65.6326 27.8727 63.9844 29.0714C62.3361 30.2608 60.2665 30.8672 57.766 30.8672C55.2422 30.8672 53.1632 30.2279 51.5337 28.9492C49.8948 27.6705 49.0801 25.8183 49.0801 23.402H54.4977C54.4977 25.0991 55.5887 25.9547 57.766 25.9547C59.8544 25.9547 60.908 25.3059 60.908 24.0085C60.908 23.4302 60.6224 22.9695 60.0511 22.6029C59.4752 22.2456 58.7587 21.9917 57.8972 21.846C57.0403 21.705 56.1085 21.4793 55.1251 21.1784C54.1325 20.8776 53.2147 20.5297 52.3531 20.1395C51.4962 19.7493 50.7751 19.11 50.1992 18.2215C49.6232 17.333 49.3423 16.2377 49.3423 14.9402C49.3423 12.7777 50.157 11.0995 51.7678 9.89131C53.3879 8.68315 55.3874 8.07672 57.7707 8.07672C60.0886 8.07672 62.0458 8.72546 63.6425 10.0229C65.2346 11.3204 66.0353 13.1632 66.0353 15.5513H60.6177C60.6177 14.7428 60.3508 14.1222 59.8217 13.6756C59.2925 13.229 58.6089 13.0081 57.7754 13.0081C55.8462 12.9705 54.8817 13.6192 54.8817 14.9167Z" fill="#181818"/>
<path d="M82.0334 8.04349C84.0703 8.04349 85.7326 8.79095 87.0437 10.2906C88.3454 11.7855 89.0009 13.8304 89.0009 16.4254V30.2511H83.4475V16.8532C83.4475 15.6685 83.1291 14.7706 82.5017 14.1501C81.8742 13.5296 81.0501 13.224 80.0481 13.224C78.8681 13.224 77.9316 13.5907 77.2339 14.324C76.5362 15.0621 76.1804 16.1903 76.1804 17.7135V30.2417H70.627V0.0141602H76.1804V10.85C77.4118 8.98839 79.3691 8.04349 82.0334 8.04349Z" fill="#181818"/>
<path d="M27.4883 5.34975V0H66.1045V5.34975H27.4883Z" fill="#181818"/>
</svg>
